# Blender 3.6.1
# www.blender.org
mtllib W.mtl
o Text.002
v -0.035561 -0.275493 0.200000
v -0.121251 -0.275493 0.200000
v -0.121251 -0.198372 0.200000
v -0.199229 -0.198372 0.200000
v -0.199229 0.275493 0.200000
v -0.112682 0.275493 0.200000
v -0.112682 -0.189803 0.200000
v -0.044130 -0.189803 0.200000
v -0.044130 -0.033847 0.200000
v 0.034704 -0.033847 0.200000
v 0.034704 0.197515 0.200000
v 0.120394 0.197515 0.200000
v 0.120394 -0.033847 0.200000
v 0.199229 -0.033847 0.200000
v 0.199229 -0.189803 0.200000
v 0.268638 -0.189803 0.200000
v 0.268638 0.275493 0.200000
v 0.354327 0.275493 0.200000
v 0.354327 -0.198372 0.200000
v 0.277207 -0.198372 0.200000
v 0.277207 -0.275493 0.200000
v 0.190660 -0.275493 0.200000
v 0.190660 -0.198372 0.200000
v 0.111825 -0.198372 0.200000
v 0.111825 -0.042416 0.200000
v 0.043273 -0.042416 0.200000
v 0.043273 -0.198372 0.200000
v -0.035561 -0.198372 0.200000
v -0.035561 -0.275493 -0.200000
v -0.121251 -0.275493 -0.200000
v -0.121251 -0.198372 -0.200000
v -0.199229 -0.198372 -0.200000
v -0.199229 0.275493 -0.200000
v -0.112682 0.275493 -0.200000
v -0.112682 -0.189803 -0.200000
v -0.044130 -0.189803 -0.200000
v -0.044130 -0.033847 -0.200000
v 0.034704 -0.033847 -0.200000
v 0.034704 0.197515 -0.200000
v 0.120394 0.197515 -0.200000
v 0.120394 -0.033847 -0.200000
v 0.199229 -0.033847 -0.200000
v 0.199229 -0.189803 -0.200000
v 0.268638 -0.189803 -0.200000
v 0.268638 0.275493 -0.200000
v 0.354327 0.275493 -0.200000
v 0.354327 -0.198372 -0.200000
v 0.277207 -0.198372 -0.200000
v 0.277207 -0.275493 -0.200000
v 0.190660 -0.275493 -0.200000
v 0.190660 -0.198372 -0.200000
v 0.111825 -0.198372 -0.200000
v 0.111825 -0.042416 -0.200000
v 0.043273 -0.042416 -0.200000
v 0.043273 -0.198372 -0.200000
v -0.035561 -0.198372 -0.200000
v -0.035561 -0.275493 -0.200000
v -0.035561 -0.275493 0.200000
v -0.121251 -0.275493 -0.200000
v -0.121251 -0.275493 0.200000
v -0.121251 -0.198372 -0.200000
v -0.121251 -0.198372 0.200000
v -0.199229 -0.198372 -0.200000
v -0.199229 -0.198372 0.200000
v -0.199229 0.275493 -0.200000
v -0.199229 0.275493 0.200000
v -0.112682 0.275493 -0.200000
v -0.112682 0.275493 0.200000
v -0.112682 -0.189803 -0.200000
v -0.112682 -0.189803 0.200000
v -0.044130 -0.189803 -0.200000
v -0.044130 -0.189803 0.200000
v -0.044130 -0.033847 -0.200000
v -0.044130 -0.033847 0.200000
v 0.034704 -0.033847 -0.200000
v 0.034704 -0.033847 0.200000
v 0.034704 0.197515 -0.200000
v 0.034704 0.197515 0.200000
v 0.120394 0.197515 -0.200000
v 0.120394 0.197515 0.200000
v 0.120394 -0.033847 -0.200000
v 0.120394 -0.033847 0.200000
v 0.199229 -0.033847 -0.200000
v 0.199229 -0.033847 0.200000
v 0.199229 -0.189803 -0.200000
v 0.199229 -0.189803 0.200000
v 0.268638 -0.189803 -0.200000
v 0.268638 -0.189803 0.200000
v 0.268638 0.275493 -0.200000
v 0.268638 0.275493 0.200000
v 0.354327 0.275493 -0.200000
v 0.354327 0.275493 0.200000
v 0.354327 -0.198372 -0.200000
v 0.354327 -0.198372 0.200000
v 0.277207 -0.198372 -0.200000
v 0.277207 -0.198372 0.200000
v 0.277207 -0.275493 -0.200000
v 0.277207 -0.275493 0.200000
v 0.190660 -0.275493 -0.200000
v 0.190660 -0.275493 0.200000
v 0.190660 -0.198372 -0.200000
v 0.190660 -0.198372 0.200000
v 0.111825 -0.198372 -0.200000
v 0.111825 -0.198372 0.200000
v 0.111825 -0.042416 -0.200000
v 0.111825 -0.042416 0.200000
v 0.043273 -0.042416 -0.200000
v 0.043273 -0.042416 0.200000
v 0.043273 -0.198372 -0.200000
v 0.043273 -0.198372 0.200000
v -0.035561 -0.198372 -0.200000
v -0.035561 -0.198372 0.200000
vn -0.0000 -0.0000 1.0000
vn -0.0000 -0.0000 -1.0000
vn 0.7071 -0.7071 -0.0000
vn -0.7071 -0.7071 -0.0000
vn -0.7071 0.7071 -0.0000
vn 0.7071 0.7071 -0.0000
vt 0.111111 0.000000
vt 0.185185 0.000000
vt 0.148148 0.000000
vt 0.222222 0.000000
vt 0.555556 0.000000
vt 0.629630 0.000000
vt 0.592593 0.000000
vt 0.666667 0.000000
vt 0.333333 0.000000
vt 0.407407 0.000000
vt 0.370370 0.000000
vt 0.444444 0.000000
vt 0.259259 0.000000
vt 0.296296 0.000000
vt 0.925926 0.000000
vt 0.481481 0.000000
vt 0.888889 0.000000
vt 0.518519 0.000000
vt 0.962963 0.000000
vt 0.851852 0.000000
vt 0.074074 0.000000
vt 0.037037 0.000000
vt 1.000000 0.000000
vt 0.000000 0.000000
vt 0.814815 0.000000
vt 0.777778 0.000000
vt 0.703704 0.000000
vt 0.740741 0.000000
vt 0.000000 1.000000
vt 0.035714 1.000000
vt 0.035714 0.000000
vt 0.071429 1.000000
vt 0.071429 0.000000
vt 0.107143 1.000000
vt 0.107143 0.000000
vt 0.142857 1.000000
vt 0.142857 0.000000
vt 0.178571 1.000000
vt 0.178571 0.000000
vt 0.214286 1.000000
vt 0.214286 0.000000
vt 0.250000 1.000000
vt 0.250000 0.000000
vt 0.285714 1.000000
vt 0.285714 0.000000
vt 0.321429 1.000000
vt 0.321429 0.000000
vt 0.357143 1.000000
vt 0.357143 0.000000
vt 0.392857 1.000000
vt 0.392857 0.000000
vt 0.428571 1.000000
vt 0.428571 0.000000
vt 0.464286 1.000000
vt 0.464286 0.000000
vt 0.500000 1.000000
vt 0.500000 0.000000
vt 0.535714 1.000000
vt 0.535714 0.000000
vt 0.571429 1.000000
vt 0.571429 0.000000
vt 0.607143 1.000000
vt 0.607143 0.000000
vt 0.642857 1.000000
vt 0.642857 0.000000
vt 0.678571 1.000000
vt 0.678571 0.000000
vt 0.714286 1.000000
vt 0.714286 0.000000
vt 0.750000 1.000000
vt 0.750000 0.000000
vt 0.785714 1.000000
vt 0.785714 0.000000
vt 0.821429 1.000000
vt 0.821429 0.000000
vt 0.857143 1.000000
vt 0.857143 0.000000
vt 0.892857 1.000000
vt 0.892857 0.000000
vt 0.928571 1.000000
vt 0.928571 0.000000
vt 0.964286 1.000000
vt 0.964286 0.000000
vt 1.000000 1.000000
s 0
f 4/1/1 6/2/1 5/3/1
f 4/1/1 7/4/1 6/2/1
f 16/5/1 18/6/1 17/7/1
f 16/5/1 19/8/1 18/6/1
f 10/9/1 12/10/1 11/11/1
f 10/9/1 13/12/1 12/10/1
f 8/13/1 10/9/1 9/14/1
f 8/13/1 26/15/1 10/9/1
f 26/15/1 13/12/1 10/9/1
f 26/15/1 14/16/1 13/12/1
f 26/15/1 25/17/1 14/16/1
f 25/17/1 15/18/1 14/16/1
f 8/13/1 27/19/1 26/15/1
f 24/20/1 15/18/1 25/17/1
f 4/1/1 8/13/1 7/4/1
f 4/1/1 27/19/1 8/13/1
f 24/20/1 16/5/1 15/18/1
f 24/20/1 19/8/1 16/5/1
f 3/21/2 27/19/2 4/1/2
f 2/22/1 28/23/1 3/21/1
f 28/23/1 27/19/1 3/21/1
f 2/22/1 1/24/1 28/23/1
f 23/25/1 19/8/1 24/20/1
f 22/26/1 20/27/1 23/25/1
f 20/27/1 19/8/1 23/25/1
f 22/26/1 21/28/1 20/27/1
f 32/1/2 33/3/2 34/2/2
f 32/1/2 34/2/2 35/4/2
f 44/5/2 45/7/2 46/6/2
f 44/5/2 46/6/2 47/8/2
f 38/9/2 39/11/2 40/10/2
f 38/9/2 40/10/2 41/12/2
f 36/13/2 37/14/2 38/9/2
f 36/13/2 38/9/2 54/15/2
f 54/15/2 38/9/2 41/12/2
f 54/15/2 41/12/2 42/16/2
f 54/15/2 42/16/2 53/17/2
f 53/17/2 42/16/2 43/18/2
f 36/13/2 54/15/2 55/19/2
f 52/20/2 53/17/2 43/18/2
f 32/1/2 35/4/2 36/13/2
f 32/1/2 36/13/2 55/19/2
f 52/20/2 43/18/2 44/5/2
f 52/20/2 44/5/2 47/8/2
f 31/21/1 32/1/1 55/19/1
f 30/22/2 31/21/2 56/23/2
f 56/23/1 31/21/1 55/19/1
f 30/22/2 56/23/2 29/24/2
f 51/25/1 52/20/1 47/8/1
f 50/26/2 51/25/2 48/27/2
f 48/27/1 51/25/1 47/8/1
f 50/26/2 48/27/2 49/28/2
s 1
f 58/29/3 60/30/4 59/31/4 57/24/3
f 60/30/4 62/32/4 61/33/4 59/31/4
f 62/32/4 64/34/4 63/35/4 61/33/4
f 64/34/4 66/36/5 65/37/5 63/35/4
f 66/36/5 68/38/6 67/39/6 65/37/5
f 68/38/6 70/40/6 69/41/6 67/39/6
f 70/40/6 72/42/5 71/43/5 69/41/6
f 72/42/5 74/44/5 73/45/5 71/43/5
f 74/44/5 76/46/5 75/47/5 73/45/5
f 76/46/5 78/48/5 77/49/5 75/47/5
f 78/48/5 80/50/6 79/51/6 77/49/5
f 80/50/6 82/52/6 81/53/6 79/51/6
f 82/52/6 84/54/6 83/55/6 81/53/6
f 84/54/6 86/56/6 85/57/6 83/55/6
f 86/56/6 88/58/5 87/59/5 85/57/6
f 88/58/5 90/60/5 89/61/5 87/59/5
f 90/60/5 92/62/6 91/63/6 89/61/5
f 92/62/6 94/64/3 93/65/3 91/63/6
f 94/64/3 96/66/3 95/67/3 93/65/3
f 96/66/3 98/68/3 97/69/3 95/67/3
f 98/68/3 100/70/4 99/71/4 97/69/3
f 100/70/4 102/72/4 101/73/4 99/71/4
f 102/72/4 104/74/4 103/75/4 101/73/4
f 104/74/4 106/76/4 105/77/4 103/75/4
f 106/76/4 108/78/3 107/79/3 105/77/4
f 108/78/3 110/80/3 109/81/3 107/79/3
f 110/80/3 112/82/3 111/83/3 109/81/3
f 112/82/3 58/84/3 57/23/3 111/83/3
